<svg id="Layer_1" data-name="Layer 1" xmlns="http://www.w3.org/2000/svg" viewBox="0 0 248.1 155"><title>logo</title><path d="M75.5,21.3H50V88.8H25.6V21.3H0V0H75.5V21.3Z" transform="translate(0.7 0.5)"/><path d="M123,89.5a42.7,42.7,0,0,1-18.4-3.9A45.4,45.4,0,0,1,90.5,75.4,46.1,46.1,0,0,1,81.4,61a44.7,44.7,0,0,1-3.2-16.8,43.6,43.6,0,0,1,3.4-16.9,44.8,44.8,0,0,1,9.4-14.3,46,46,0,0,1,14.4-9.9A44.4,44.4,0,0,1,123.5-.5a42.7,42.7,0,0,1,18.4,3.9A45,45,0,0,1,156,13.6a46,46,0,0,1,9.1,14.5,45.2,45.2,0,0,1,3.2,16.6,43.1,43.1,0,0,1-3.4,16.8,45.5,45.5,0,0,1-9.4,14.2,46.1,46.1,0,0,1-14.3,9.9A43.7,43.7,0,0,1,123,89.5Zm-20.1-45a30.2,30.2,0,0,0,1.3,8.7,22.7,22.7,0,0,0,3.8,7.4,18.9,18.9,0,0,0,6.3,5.3,21.4,21.4,0,0,0,18.2-.1,18.5,18.5,0,0,0,6.3-5.4,23.1,23.1,0,0,0,3.6-7.6,31.9,31.9,0,0,0,1.2-8.6,30.3,30.3,0,0,0-1.2-8.7,21.4,21.4,0,0,0-3.8-7.4,19.3,19.3,0,0,0-6.4-5.1,19.5,19.5,0,0,0-8.9-1.9,19.3,19.3,0,0,0-9.1,2,18.6,18.6,0,0,0-6.3,5.3,22.5,22.5,0,0,0-3.7,7.5A31.2,31.2,0,0,0,102.9,44.5Z" transform="translate(0.7 0.5)"/><path d="M178.6,88.8V0h38.3a27,27,0,0,1,12,2.7,31.2,31.2,0,0,1,9.4,7,32.7,32.7,0,0,1,6.2,9.9,29.6,29.6,0,0,1,2.2,11.2,32.5,32.5,0,0,1-8.1,21.3,28.3,28.3,0,0,1-9.2,6.9,27.6,27.6,0,0,1-11.9,2.6H203V88.8H178.6ZM203,40.3h12.9a5.7,5.7,0,0,0,4.2-2.1q1.9-2.1,1.9-7.4t-2.2-7.5a6.8,6.8,0,0,0-4.5-2H203v19Z" transform="translate(0.7 0.5)"/><path d="M46.1,112.7H30.3v41.8H15.2V112.7H-0.7V99.5H46.1v13.2Z" transform="translate(0.7 0.5)"/><path d="M100.3,99.5v55H85.1V133H66.7v21.5H51.6v-55H66.7v20.3H85.1V99.5h15.1Z" transform="translate(0.7 0.5)"/><path d="M109.7,154.5v-55H135a16.7,16.7,0,0,1,7.4,1.7,19.3,19.3,0,0,1,5.8,4.3,20.3,20.3,0,0,1,3.8,6.1,18.4,18.4,0,0,1,1.4,6.9,19.6,19.6,0,0,1-2.1,8.9,18.2,18.2,0,0,1-5.8,6.8l11.6,20.2h-17l-9.7-16.9h-5.7v16.9H109.7Zm15.1-30.1h9.5a3.3,3.3,0,0,0,2.6-1.5,6.9,6.9,0,0,0,1.2-4.3,6.2,6.2,0,0,0-1.4-4.4,3.9,3.9,0,0,0-2.8-1.5h-9.1v11.8Z" transform="translate(0.7 0.5)"/><path d="M201.2,141.3v13.2H162v-55h38.5v13.2H177.1v7.7h20v12.2h-20v8.7h24.1Z" transform="translate(0.7 0.5)"/><path d="M247.4,141.3v13.2H208.2v-55h38.5v13.2H223.3v7.7h20v12.2h-20v8.7h24.1Z" transform="translate(0.7 0.5)"/></svg>