<?xml version="1.0" encoding="utf-8"?>
<!-- Generator: Adobe Illustrator 19.2.1, SVG Export Plug-In . SVG Version: 6.00 Build 0)  -->
<svg version="1.1" id="Layer_1" xmlns="http://www.w3.org/2000/svg" xmlns:xlink="http://www.w3.org/1999/xlink" x="0px" y="0px"
	 viewBox="0 0 247.4 154.5" style="enable-background:new 0 0 247.4 154.5;" xml:space="preserve">
<style type="text/css">
	.st0{fill:#242026;}
</style>
<g>
	<path class="st0" d="M75.5,21.2H50v67.5H25.6V21.2H0V0h75.5V21.2z"/>
	<path class="st0" d="M123,89.5c-6.7,0-12.9-1.3-18.4-3.9c-5.5-2.6-10.2-6-14.1-10.2c-3.9-4.2-7-9-9.1-14.4
		c-2.2-5.4-3.2-11-3.2-16.8c0-5.8,1.1-11.5,3.4-16.9c2.3-5.4,5.4-10.2,9.4-14.3c4-4.1,8.8-7.4,14.4-9.9c5.5-2.5,11.6-3.7,18.2-3.7
		c6.7,0,12.9,1.3,18.4,3.9c5.5,2.6,10.2,6,14.1,10.2c3.9,4.2,6.9,9.1,9.1,14.5c2.1,5.4,3.2,11,3.2,16.6c0,5.8-1.1,11.4-3.4,16.8
		c-2.3,5.4-5.4,10.1-9.4,14.2c-4,4.1-8.8,7.4-14.3,9.9C135.6,88.3,129.6,89.5,123,89.5z M102.9,44.5c0,3,0.4,5.9,1.2,8.7
		c0.8,2.8,2.1,5.3,3.8,7.4c1.7,2.2,3.8,3.9,6.3,5.3c2.5,1.3,5.6,2,9.1,2c3.5,0,6.5-0.7,9.1-2.1c2.6-1.4,4.7-3.2,6.3-5.4
		c1.6-2.2,2.8-4.7,3.6-7.6c0.8-2.8,1.2-5.7,1.2-8.6c0-3-0.4-5.9-1.2-8.7c-0.8-2.8-2.1-5.3-3.8-7.4c-1.7-2.1-3.8-3.8-6.4-5.1
		c-2.5-1.3-5.5-1.9-8.9-1.9c-3.5,0-6.5,0.7-9.1,2c-2.5,1.3-4.6,3.1-6.3,5.3c-1.7,2.2-2.9,4.7-3.7,7.5
		C103.3,38.7,102.9,41.6,102.9,44.5z"/>
	<path class="st0" d="M178.6,88.8V0h38.3c4.3,0,8.3,0.9,12,2.7c3.7,1.8,6.8,4.1,9.4,7c2.6,2.9,4.7,6.2,6.2,9.9
		c1.5,3.7,2.2,7.4,2.2,11.2c0,3.9-0.7,7.7-2.1,11.4c-1.4,3.7-3.4,7-5.9,9.9c-2.5,2.9-5.6,5.2-9.2,6.9c-3.6,1.7-7.6,2.6-11.9,2.6H203
		v27.2H178.6z M203,40.3h12.9c1.5,0,2.9-0.7,4.2-2.1c1.3-1.4,1.9-3.9,1.9-7.4c0-3.7-0.7-6.2-2.2-7.5c-1.5-1.3-3-2-4.5-2H203V40.3z"
		/>
</g>
<g>
	<path class="st0" d="M46.1,112.7H30.3v41.8H15.2v-41.8H-0.7V99.5h46.8V112.7z"/>
	<path class="st0" d="M100.3,99.5v55H85.1V133H66.7v21.5H51.6v-55h15.1v20.3h18.4V99.5H100.3z"/>
	<path class="st0" d="M109.7,154.5v-55H135c2.7,0,5.2,0.6,7.4,1.7c2.3,1.1,4.2,2.6,5.8,4.3s2.9,3.8,3.8,6.1c0.9,2.3,1.4,4.6,1.4,6.9
		c0,3.2-0.7,6.2-2.1,8.9c-1.4,2.8-3.3,5-5.8,6.8l11.6,20.2h-17l-9.7-16.9h-5.7v16.9H109.7z M124.8,124.4h9.5c0.9,0,1.8-0.5,2.6-1.5
		c0.8-1,1.2-2.5,1.2-4.3c0-1.9-0.5-3.4-1.4-4.4c-0.9-1-1.9-1.5-2.8-1.5h-9.1V124.4z"/>
	<path class="st0" d="M201.2,141.3v13.2H162v-55h38.5v13.2h-23.4v7.7h20v12.2h-20v8.7H201.2z"/>
	<path class="st0" d="M247.4,141.3v13.2h-39.2v-55h38.5v13.2h-23.4v7.7h20v12.2h-20v8.7H247.4z"/>
</g>
</svg>
