<?xml version="1.0" encoding="utf-8"?>
<!-- Generator: Adobe Illustrator 19.2.1, SVG Export Plug-In . SVG Version: 6.00 Build 0)  -->
<svg version="1.1" id="Layer_1" xmlns="http://www.w3.org/2000/svg" xmlns:xlink="http://www.w3.org/1999/xlink" x="0px" y="0px"
	 viewBox="0 0 200.3 338.5" style="enable-background:new 0 0 200.3 338.5;" xml:space="preserve">
<style type="text/css">
	.st0{opacity:0.4;}
	.st1{fill:#C10000;}
</style>
<g class="st0">
	
		<image style="overflow:visible;" width="237" height="97" xlink:href="8C6194363D3B9C43.png"  transform="matrix(1 0 0 1 -18.6109 269.1992)">
	</image>
</g>
<g>
	<path class="st1" d="M99.9,317.4c-4.4-8.5-8.4-16.6-12.5-24.6c-25.1-49.2-50.3-98.3-75.2-147.5C2.2,125.7-1,105,3,83.4
		c5-27.3,19.1-48.9,41.9-64.4C66.4,4.3,90.4-1,116.2,3.5c31.2,5.4,54.7,22.3,70.1,49.8c10.7,19.1,14.1,39.8,11.1,61.6
		c-2,14.9-8.4,28.1-15.1,41.2c-22.2,43.3-44.3,86.7-66.4,130C110.7,296.4,105.4,306.6,99.9,317.4z M159,100.6
		c0-32.6-26.6-59.3-59.1-59.2c-32.5,0.1-58.9,26.5-59.1,59c-0.1,32.6,26.4,59.2,59,59.3C132.4,159.8,159,133.2,159,100.6z"/>
</g>
</svg>
