<?xml version="1.0" encoding="utf-8"?>
<!-- Generator: Adobe Illustrator 19.2.1, SVG Export Plug-In . SVG Version: 6.00 Build 0)  -->
<svg version="1.1" id="Layer_1" xmlns="http://www.w3.org/2000/svg" xmlns:xlink="http://www.w3.org/1999/xlink" x="0px" y="0px"
	 viewBox="0 0 174.2 279.8" style="enable-background:new 0 0 174.2 279.8;" xml:space="preserve">
<style type="text/css">
	.st0{fill:#3D4952;}
</style>
<g>
	<path class="st0" d="M11.6,247.3c0,0.6,0.6,1.1,1.2,0.9c13.8-5,47.5-17.4,59.9-21.9c8.4-3,8.4-3,8.4-11.9c0-56.3,0-112.7,0-169l0-4
		c0-0.7-0.6-1.2-1.3-1.2c-0.6,0-1.2,0.1-1.7,0.3c-20.8,7.5-41.5,15.1-62.3,22.4c-2.9,1-4.2,2.3-3.7,5.3L11.6,247.3z M0.1,263.9
		c0,0-0.1-192.7,0.2-206.4c0-1.1,2.2-2.5,3.7-3.1c19.6-7.2,39.3-14.2,59-21.3c1.7-0.6,3.3-1.3,5.9-2.3C56.2,26.2,44.5,22,32,17.5
		c-0.5-0.2-0.9,0.2-1,0.7c0,4.5-0.3,8.6,0.1,12.6c0.4,4.3-1.3,6.4-5.3,7.3c-2.1,0.5-4.1,1.3-6.5,2.1V0.3C32.7,5,45.9,9.7,59.1,14.4
		c7.8,2.8,15.5,5.9,23.4,8.4c2.8,0.9,6.3,0.9,9,0c19.6-6.8,39.1-13.9,58.6-20.9c1.4-0.5,2.8-1,4.6-1.6v40c-3.2-1.1-6.6-1.9-9.6-3.4
		c-1.1-0.5-1.9-2.5-2-3.9c-0.2-4.6-0.1-9.1-0.1-14.3c0-0.7-0.7-1.2-1.4-1c-12.2,4.4-24,8.6-36.8,13.2c8.1,3,15.4,5.7,22.7,8.3
		c14.2,5.1,28.4,10.2,42.7,15.2c2.7,0.9,3.9,2.1,3.9,5.2c-0.1,67.7-0.1,135.3-0.1,203c0,0.5,0,0.9-0.1,1.6c0,0.5-0.5,0.8-1,0.6
		c-10.3-3.7-20.4-7.2-30.5-10.8c-17.2-6.2-34.3-12.5-51.5-18.5c-2.4-0.8-6.2-0.4-8.6,0.5c0,0-81.2,29.1-81.2,29.1
		C0.5,265.2,0.1,264.6,0.1,263.9z M94.6,40.1c-0.6-0.2-1.3,0.1-1.4,0.8c-0.1,0.2-0.1,0.3-0.1,0.5c0,59.6,0,119.2-0.1,178.8
		c0,3.2,1.7,3.9,3.9,4.7c15.3,5.5,30.6,10.9,45.9,16.4c5.7,2,11.4,4.1,17.2,6.2c0.9,0.3,1.9-0.3,1.9-1.3l0,0
		c0-59.6,0-119.2-0.1-178.8c0-1.4-1.7-3.4-3.1-4c-6-2.5-12.1-4.5-18.2-6.7C125.4,51.1,110.2,45.6,94.6,40.1z"/>
	<path class="st0" d="M47.6,267.5c32.7,7.3,48.6,6.1,61.5-4.8c-2.4-1.7-4.7-3.4-7.8-5.7c10,0,19.1,0,28.5,0c0.4,6.5,0.9,13,1.3,19.3
		c-0.4,0.2-0.9,0.5-1,0.4c-5.6-5.8-11.4-4.2-18.2-1.7c-19.8,7.1-39.5,5.9-58.3-4C51.9,270.2,50.3,269.1,47.6,267.5z"/>
</g>
</svg>
