<svg id="Layer_1" data-name="Layer 1" xmlns="http://www.w3.org/2000/svg" viewBox="0 0 174 279.4"><defs><style>.cls-1{fill:#3c3640;}</style></defs><title>revolve-left</title><path class="cls-1" d="M162.1,68.1c0.5-3-.9-4.3-3.7-5.3-20.8-7.3-41.5-14.9-62.3-22.4a6.5,6.5,0,0,0-1.7-.3,1.2,1.2,0,0,0-1.3,1.2v4q0,84.5,0,169c0,8.9,0,8.9,8.4,11.9l59.9,21.9a0.9,0.9,0,0,0,1.2-.9ZM173,265L91.8,235.9c-2.4-.8-6.2-1.3-8.6-0.5-17.2,6-34.3,12.3-51.5,18.5L1.3,264.8a0.7,0.7,0,0,1-1-.6c-0.1-.7-0.1-1.1-0.1-1.6q0-101.5-.1-203c0-3.1,1.2-4.3,3.9-5.2L46.7,39.1l22.7-8.3L32.5,17.7a1,1,0,0,0-1.4,1c0,5.1.1,9.7-.1,14.3-0.1,1.4-.9,3.4-2,3.9a83.4,83.4,0,0,1-9.6,3.4V0.2l4.6,1.6c19.5,7,39,14.1,58.6,20.9a15.3,15.3,0,0,0,9,0c7.9-2.5,15.6-5.6,23.4-8.4L154.7,0.3V40.2c-2.4-.8-4.4-1.7-6.5-2.1-4-.9-5.7-2.9-5.3-7.3a115.7,115.7,0,0,0,.1-12.6,0.7,0.7,0,0,0-1-.7L105.3,30.8l5.9,2.3,59,21.3c1.5,0.5,3.7,2,3.7,3.1,0.2,13.7.2,206.4,0.2,206.4S173.7,265.2,173,265ZM33.6,56.5c-6.1,2.2-12.2,4.3-18.2,6.7-1.4.6-3.1,2.6-3.1,4q-0.2,89.4-.1,178.8h0a1.4,1.4,0,0,0,1.9,1.3l17.2-6.2,45.9-16.4c2.2-.8,4-1.5,3.9-4.7Q81,130.7,81,41.3a1.9,1.9,0,0,0-.1-0.5,1.1,1.1,0,0,0-1.4-.8Z" transform="translate(-0.1 -0.2)"/><path class="cls-1" d="M126.5,267.5c-32.7,7.3-48.6,6.1-61.5-4.8l7.8-5.7H44.3l-1.3,19.3a3.2,3.2,0,0,0,1,.4c5.6-5.8,11.4-4.2,18.2-1.7,19.8,7.1,39.5,5.9,58.3-4C122.3,270.2,123.9,269.1,126.5,267.5Z" transform="translate(-0.1 -0.2)"/></svg>