<svg id="Layer_1" data-name="Layer 1" xmlns="http://www.w3.org/2000/svg" viewBox="0 0 174 279.4"><defs><style>.cls-1{fill:#3c3640;}</style></defs><title>revolve-right</title><path class="cls-1" d="M11.6,247.3a0.9,0.9,0,0,0,1.2.9l59.9-21.9c8.4-3,8.4-3,8.4-11.9q0-84.5,0-169v-4a1.2,1.2,0,0,0-1.3-1.2,6.5,6.5,0,0,0-1.7.3C57.3,47.9,36.6,55.5,15.8,62.8c-2.9,1-4.2,2.3-3.7,5.3ZM0.1,263.9S0,71.2.3,57.5c0-1.1,2.2-2.5,3.7-3.1L63,33.1l5.9-2.3L32,17.5a0.7,0.7,0,0,0-1,.7,115.7,115.7,0,0,0,.1,12.6c0.4,4.3-1.3,6.4-5.3,7.3-2.1.5-4.1,1.3-6.5,2.1V0.3L59.1,14.4c7.8,2.8,15.5,5.9,23.4,8.4a15.3,15.3,0,0,0,9,0C111.1,16,130.6,8.9,150.1,1.9l4.6-1.6v40a83.4,83.4,0,0,1-9.6-3.4c-1.1-.5-1.9-2.5-2-3.9-0.2-4.6-.1-9.1-0.1-14.3a1,1,0,0,0-1.4-1L104.8,30.8l22.7,8.3,42.7,15.2c2.7,0.9,3.9,2.1,3.9,5.2q-0.2,101.5-.1,203c0,0.5,0,.9-0.1,1.6a0.7,0.7,0,0,1-1,.6L142.4,254c-17.2-6.2-34.3-12.5-51.5-18.5-2.4-.8-6.2-0.4-8.6.5L1.1,265C0.5,265.2.1,264.6,0.1,263.9ZM94.6,40.1a1.1,1.1,0,0,0-1.4.8,1.9,1.9,0,0,0-.1.5q0,89.4-.1,178.8c0,3.2,1.7,3.9,3.9,4.7l45.9,16.4,17.2,6.2a1.4,1.4,0,0,0,1.9-1.3h0q0-89.4-.1-178.8c0-1.4-1.7-3.4-3.1-4-6-2.5-12.1-4.5-18.2-6.7Z" transform="translate(-0.1 -0.2)"/><path class="cls-1" d="M47.6,267.5c32.7,7.3,48.6,6.1,61.5-4.8l-7.8-5.7h28.5l1.3,19.3a3.2,3.2,0,0,1-1,.4c-5.6-5.8-11.4-4.2-18.2-1.7-19.8,7.1-39.5,5.9-58.3-4C51.9,270.2,50.3,269.1,47.6,267.5Z" transform="translate(-0.1 -0.2)"/></svg>